0xProto-Regular.ufo
<glyph name="exclam" format="2">
  <advance width="620"/>
  <unicode hex="0021"/>
  <outline>
    <contour>
      <point x="310" y="-27" type="curve" smooth="yes"/>
      <point x="351" y="-27"/>
      <point x="386" y="8"/>
      <point x="386" y="49" type="curve" smooth="yes"/>
      <point x="386" y="90"/>
      <point x="351" y="125"/>
      <point x="310" y="125" type="curve" smooth="yes"/>
      <point x="269" y="125"/>
      <point x="234" y="90"/>
      <point x="234" y="49" type="curve" smooth="yes"/>
      <point x="234" y="8"/>
      <point x="269" y="-27"/>
    </contour>
    <contour>
      <point x="228" y="725" type="line"/>
      <point x="235" y="560"/>
      <point x="255" y="375"/>
      <point x="263" y="210" type="curve"/>
      <point x="357" y="210" type="line"/>
      <point x="365" y="375"/>
      <point x="385" y="560"/>
      <point x="392" y="725" type="curve"/>
    </contour>
  </outline>
</glyph>
<glyph name="quotesingle" format="2">
  <advance width="620"/>
  <unicode hex="0027"/>
  <outline>
    <contour>
      <point x="247" y="710" type="line"/>
      <point x="284" y="438" type="line"/>
      <point x="336" y="438" type="line"/>
      <point x="373" y="710" type="line"/>
    </contour>
  </outline>
</glyph>
<glyph name="two" format="2">
  <advance width="620"/>
  <unicode hex="0032"/>
  <outline>
    <contour>
      <point x="96" y="88" type="line"/>
      <point x="96" y="0" type="line"/>
      <point x="554" y="0" type="line"/>
      <point x="554" y="88" type="line"/>
    </contour>
    <contour>
      <point x="84" y="630" type="curve"/>
      <point x="138" y="566" type="line"/>
      <point x="189" y="608"/>
      <point x="249" y="635"/>
      <point x="305" y="635" type="curve" smooth="yes"/>
      <point x="386" y="635"/>
      <point x="435" y="578"/>
      <point x="435" y="508" type="curve" smooth="yes"/>
      <point x="435" y="409"/>
      <point x="345" y="339"/>
      <point x="272" y="266" type="curve" smooth="yes"/>
      <point x="96" y="88" type="line"/>
      <point x="232" y="88" type="line"/>
      <point x="401" y="266" type="line" smooth="yes"/>
      <point x="463" y="332"/>
      <point x="533" y="392"/>
      <point x="533" y="518" type="curve" smooth="yes"/>
      <point x="533" y="633"/>
      <point x="447" y="724"/>
      <point x="323" y="724" type="curve" smooth="yes"/>
      <point x="227" y="724"/>
      <point x="147" y="687"/>
    </contour>
  </outline>
</glyph>
<glyph name="eight" format="2">
  <advance width="620"/>
  <unicode hex="0038"/>
  <outline>
    <contour>
      <point x="307" y="-16" type="curve" smooth="yes"/>
      <point x="422" y="-16"/>
      <point x="550" y="37"/>
      <point x="550" y="192" type="curve" smooth="yes"/>
      <point x="550" y="280"/>
      <point x="488" y="346"/>
      <point x="421" y="367" type="curve"/>
      <point x="483" y="399"/>
      <point x="526" y="445"/>
      <point x="526" y="538" type="curve" smooth="yes"/>
      <point x="526" y="625"/>
      <point x="463" y="725"/>
      <point x="307" y="725" type="curve" smooth="yes"/>
      <point x="151" y="725"/>
      <point x="88" y="625"/>
      <point x="88" y="538" type="curve" smooth="yes"/>
      <point x="88" y="445"/>
      <point x="131" y="399"/>
      <point x="193" y="367" type="curve"/>
      <point x="126" y="346"/>
      <point x="64" y="280"/>
      <point x="64" y="192" type="curve" smooth="yes"/>
      <point x="64" y="37"/>
      <point x="192" y="-16"/>
    </contour>
    <contour>
      <point x="162" y="196" type="curve" smooth="yes"/>
      <point x="162" y="266"/>
      <point x="221" y="318"/>
      <point x="307" y="318" type="curve" smooth="yes"/>
      <point x="393" y="318"/>
      <point x="452" y="266"/>
      <point x="452" y="196" type="curve" smooth="yes"/>
      <point x="452" y="119"/>
      <point x="402" y="72"/>
      <point x="307" y="72" type="curve" smooth="yes"/>
      <point x="212" y="72"/>
      <point x="162" y="119"/>
    </contour>
    <contour>
      <point x="185" y="527" type="curve" smooth="yes"/>
      <point x="185" y="575"/>
      <point x="213" y="637"/>
      <point x="307" y="637" type="curve" smooth="yes"/>
      <point x="401" y="637"/>
      <point x="431" y="575"/>
      <point x="431" y="527" type="curve" smooth="yes"/>
      <point x="431" y="458"/>
      <point x="383" y="413"/>
      <point x="308" y="413" type="curve" smooth="yes"/>
      <point x="233" y="413"/>
      <point x="185" y="458"/>
    </contour>
  </outline>
</glyph>
<glyph name="less" format="2">
  <advance width="620"/>
  <unicode hex="003C"/>
  <outline>
    <contour>
      <point x="510" y="597" type="line"/>
      <point x="500" y="597" type="line"/>
      <point x="90" y="356" type="line"/>
      <point x="90" y="263" type="line"/>
      <point x="510" y="498" type="line"/>
    </contour>
    <contour>
      <point x="510" y="11" type="line"/>
      <point x="510" y="110" type="line"/>
      <point x="90" y="350" type="line"/>
      <point x="90" y="257" type="line"/>
      <point x="500" y="11" type="line"/>
    </contour>
  </outline>
</glyph>
<glyph name="equal" format="2">
  <advance width="620"/>
  <unicode hex="003D"/>
  <outline>
    <contour>
      <point x="545" y="250" type="line"/>
      <point x="75" y="250" type="line"/>
      <point x="75" y="164" type="line"/>
      <point x="545" y="164" type="line"/>
    </contour>
    <contour>
      <point x="545" y="452" type="line"/>
      <point x="75" y="452" type="line"/>
      <point x="75" y="366" type="line"/>
      <point x="545" y="366" type="line"/>
    </contour>
  </outline>
</glyph>
<glyph name="question" format="2">
  <advance width="620"/>
  <unicode hex="003F"/>
  <outline>
    <contour>
      <point x="257" y="210" type="line"/>
      <point x="356" y="210" type="line"/>
      <point x="356" y="235" type="line" smooth="yes"/>
      <point x="356" y="359"/>
      <point x="574" y="348"/>
      <point x="574" y="523" type="curve" smooth="yes"/>
      <point x="574" y="629"/>
      <point x="471" y="726"/>
      <point x="305" y="726" type="curve" smooth="yes"/>
      <point x="198" y="726"/>
      <point x="105" y="665"/>
      <point x="46" y="598" type="curve"/>
      <point x="117" y="535" type="line"/>
      <point x="157" y="579"/>
      <point x="216" y="628"/>
      <point x="308" y="628" type="curve" smooth="yes"/>
      <point x="422" y="628"/>
      <point x="474" y="572"/>
      <point x="474" y="521" type="curve" smooth="yes"/>
      <point x="474" y="415"/>
      <point x="257" y="430"/>
      <point x="257" y="229" type="curve" smooth="yes"/>
    </contour>
    <contour>
      <point x="313" y="-27" type="curve" smooth="yes"/>
      <point x="354" y="-27"/>
      <point x="389" y="8"/>
      <point x="389" y="49" type="curve" smooth="yes"/>
      <point x="389" y="90"/>
      <point x="354" y="125"/>
      <point x="313" y="125" type="curve" smooth="yes"/>
      <point x="272" y="125"/>
      <point x="237" y="90"/>
      <point x="237" y="49" type="curve" smooth="yes"/>
      <point x="237" y="8"/>
      <point x="272" y="-27"/>
    </contour>
  </outline>
</glyph>
<glyph name="A" format="2">
  <advance width="620"/>
  <unicode hex="0041"/>
  <anchor x="310" y="0" name="bottom"/>
  <anchor x="582" y="0" name="ogonek"/>
  <anchor x="310" y="710" name="top"/>
  <outline>
    <contour>
      <point x="38" y="0" type="curve"/>
      <point x="139" y="0" type="line"/>
      <point x="207" y="304"/>
      <point x="270" y="540"/>
      <point x="352" y="710" type="curve"/>
      <point x="258" y="710" type="line"/>
      <point x="176" y="540"/>
      <point x="106" y="304"/>
    </contour>
    <contour>
      <point x="582" y="0" type="line"/>
      <point x="514" y="304"/>
      <point x="444" y="540"/>
      <point x="362" y="710" type="curve"/>
      <point x="268" y="710" type="line"/>
      <point x="350" y="540"/>
      <point x="413" y="304"/>
      <point x="481" y="0" type="curve"/>
    </contour>
    <contour>
      <point x="164" y="258" type="line"/>
      <point x="164" y="170" type="line"/>
      <point x="464" y="170" type="line"/>
      <point x="464" y="258" type="line"/>
    </contour>
  </outline>
</glyph>
<glyph name="C" format="2">
  <advance width="620"/>
  <unicode hex="0043"/>
  <anchor x="323" y="0" name="bottom"/>
  <anchor x="323" y="726" name="top"/>
  <outline>
    <contour>
      <point x="340" y="-16" type="curve" smooth="yes"/>
      <point x="435" y="-16"/>
      <point x="509" y="12"/>
      <point x="580" y="72" type="curve"/>
      <point x="525" y="143" type="line"/>
      <point x="466" y="94"/>
      <point x="411" y="74"/>
      <point x="340" y="74" type="curve" smooth="yes"/>
      <point x="210" y="74"/>
      <point x="136" y="176"/>
      <point x="136" y="352" type="curve" smooth="yes"/>
      <point x="136" y="531"/>
      <point x="207" y="636"/>
      <point x="324" y="636" type="curve" smooth="yes"/>
      <point x="403" y="636"/>
      <point x="455" y="596"/>
      <point x="491" y="525" type="curve"/>
      <point x="571" y="565" type="line"/>
      <point x="521" y="672"/>
      <point x="442" y="726"/>
      <point x="323" y="726" type="curve" smooth="yes"/>
      <point x="141" y="726"/>
      <point x="37" y="587"/>
      <point x="37" y="352" type="curve" smooth="yes"/>
      <point x="37" y="119"/>
      <point x="147" y="-16"/>
    </contour>
  </outline>
</glyph>
<glyph name="M" format="2">
  <advance width="620"/>
  <unicode hex="004D"/>
  <anchor x="310" y="0" name="bottom"/>
  <anchor x="310" y="710" name="top"/>
  <outline>
    <contour>
      <point x="271" y="260" type="curve"/>
      <point x="351" y="260" type="line"/>
      <point x="419" y="420"/>
      <point x="496" y="570"/>
      <point x="580" y="710" type="curve"/>
      <point x="476" y="710" type="line"/>
      <point x="398" y="570"/>
      <point x="329" y="420"/>
    </contour>
    <contour>
      <point x="33" y="710" type="line"/>
      <point x="33" y="0" type="line"/>
      <point x="131" y="0" type="line"/>
      <point x="131" y="710" type="line"/>
    </contour>
    <contour>
      <point x="489" y="710" type="line"/>
      <point x="489" y="0" type="line"/>
      <point x="587" y="0" type="line"/>
      <point x="587" y="710" type="line"/>
    </contour>
    <contour>
      <point x="349" y="260" type="line"/>
      <point x="291" y="420"/>
      <point x="222" y="570"/>
      <point x="144" y="710" type="curve"/>
      <point x="40" y="710" type="line"/>
      <point x="124" y="570"/>
      <point x="201" y="420"/>
      <point x="269" y="260" type="curve"/>
    </contour>
  </outline>
</glyph>
<glyph name="W" format="2">
  <advance width="620"/>
  <unicode hex="0057"/>
  <anchor x="310" y="0" name="bottom"/>
  <anchor x="310" y="710" name="top"/>
  <outline>
    <contour>
      <point x="30" y="710" type="line"/>
      <point x="26" y="396"/>
      <point x="58" y="159"/>
      <point x="102" y="0" type="curve"/>
      <point x="194" y="0" type="line"/>
      <point x="152" y="159"/>
      <point x="121" y="396"/>
      <point x="128" y="710" type="curve"/>
    </contour>
    <contour>
      <point x="350" y="473" type="line"/>
      <point x="267" y="473" type="line"/>
      <point x="142" y="0" type="line"/>
      <point x="233" y="0" type="line"/>
    </contour>
    <contour>
      <point x="270" y="473" type="line"/>
      <point x="387" y="0" type="line"/>
      <point x="478" y="0" type="line"/>
      <point x="353" y="473" type="line"/>
    </contour>
    <contour>
      <point x="590" y="710" type="curve"/>
      <point x="492" y="710" type="line"/>
      <point x="496" y="396"/>
      <point x="468" y="159"/>
      <point x="426" y="0" type="curve"/>
      <point x="518" y="0" type="line"/>
      <point x="562" y="159"/>
      <point x="591" y="396"/>
    </contour>
  </outline>
</glyph>
<glyph name="asciicircum" format="2">
  <advance width="620"/>
  <unicode hex="005E"/>
  <outline>
    <contour>
      <point x="85" y="420" type="line"/>
      <point x="180" y="420" type="line"/>
      <point x="344" y="750" type="line"/>
      <point x="255" y="750" type="line"/>
      <point x="85" y="430" type="line"/>
    </contour>
    <contour>
      <point x="519" y="420" type="line"/>
      <point x="519" y="430" type="line"/>
      <point x="349" y="750" type="line"/>
      <point x="260" y="750" type="line"/>
      <point x="424" y="420" type="line"/>
    </contour>
  </outline>
</glyph>
<glyph name="b" format="2">
  <advance width="620"/>
  <unicode hex="0062"/>
  <anchor x="310" y="0" name="bottom"/>
  <anchor x="310" y="750" name="top"/>
  <outline>
    <contour>
      <point x="207" y="-8" type="line"/>
      <point x="207" y="750" type="line"/>
      <point x="112" y="750" type="line"/>
      <point x="112" y="-8" type="line"/>
    </contour>
    <contour>
      <point x="347" y="-16" type="curve" smooth="yes"/>
      <point x="489" y="-16"/>
      <point x="562" y="121"/>
      <point x="562" y="271" type="curve" smooth="yes"/>
      <point x="562" y="419"/>
      <point x="490" y="558"/>
      <point x="347" y="558" type="curve" smooth="yes"/>
      <point x="211" y="558"/>
      <point x="141" y="399"/>
      <point x="141" y="271" type="curve" smooth="yes"/>
      <point x="141" y="131"/>
      <point x="214" y="-16"/>
    </contour>
    <contour>
      <point x="336" y="71" type="curve" smooth="yes"/>
      <point x="242" y="71"/>
      <point x="186" y="174"/>
      <point x="186" y="271" type="curve" smooth="yes"/>
      <point x="186" y="356"/>
      <point x="241" y="470"/>
      <point x="336" y="470" type="curve" smooth="yes"/>
      <point x="435" y="470"/>
      <point x="468" y="361"/>
      <point x="468" y="271" type="curve" smooth="yes"/>
      <point x="468" y="179"/>
      <point x="435" y="71"/>
    </contour>
    <contour>
      <point x="20" y="750" type="line"/>
      <point x="20" y="692" type="line"/>
      <point x="207" y="660" type="line"/>
      <point x="207" y="750" type="line"/>
    </contour>
  </outline>
</glyph>
<glyph name="e" format="2">
  <advance width="620"/>
  <unicode hex="0065"/>
  <anchor x="310" y="0" name="bottom"/>
  <anchor x="447" y="0" name="ogonek"/>
  <anchor x="310" y="550" name="top"/>
  <outline>
    <contour>
      <point x="328" y="-16" type="curve" smooth="yes"/>
      <point x="380" y="-16"/>
      <point x="439" y="-11"/>
      <point x="528" y="30" type="curve"/>
      <point x="495" y="106" type="line"/>
      <point x="428" y="76"/>
      <point x="368" y="70"/>
      <point x="338" y="70" type="curve" smooth="yes"/>
      <point x="247" y="70"/>
      <point x="170" y="109"/>
      <point x="156" y="218" type="curve"/>
      <point x="537" y="218" type="line"/>
      <point x="581" y="379"/>
      <point x="507" y="566"/>
      <point x="313" y="566" type="curve" smooth="yes"/>
      <point x="157" y="566"/>
      <point x="58" y="461"/>
      <point x="58" y="273" type="curve" smooth="yes"/>
      <point x="58" y="87"/>
      <point x="169" y="-16"/>
    </contour>
    <contour>
      <point x="152" y="303" type="line"/>
      <point x="152" y="396"/>
      <point x="210" y="478"/>
      <point x="310" y="478" type="curve" smooth="yes"/>
      <point x="414" y="478"/>
      <point x="470" y="396"/>
      <point x="462" y="303" type="curve"/>
    </contour>
  </outline>
</glyph>
<glyph name="f" format="2">
  <advance width="620"/>
  <unicode hex="0066"/>
  <anchor x="310" y="-200" name="bottom"/>
  <anchor x="310" y="750" name="top"/>
  <outline>
    <contour>
      <point x="64" y="489" type="line"/>
      <point x="64" y="401" type="line"/>
      <point x="537" y="401" type="line"/>
      <point x="537" y="489" type="line"/>
    </contour>
    <contour>
      <point x="344" y="561" type="line" smooth="yes"/>
      <point x="344" y="637"/>
      <point x="359" y="678"/>
      <point x="444" y="678" type="curve" smooth="yes"/>
      <point x="479" y="678"/>
      <point x="527" y="663"/>
      <point x="567" y="639" type="curve"/>
      <point x="610" y="713" type="line"/>
      <point x="555" y="746"/>
      <point x="489" y="766"/>
      <point x="427" y="766" type="curve" smooth="yes"/>
      <point x="374" y="766"/>
      <point x="251" y="762"/>
      <point x="251" y="604" type="curve" smooth="yes"/>
      <point x="251" y="587"/>
      <point x="251" y="588"/>
      <point x="251" y="571" type="curve"/>
      <point x="251" y="376"/>
      <point x="251" y="172"/>
      <point x="251" y="-23" type="curve" smooth="yes"/>
      <point x="251" y="-64"/>
      <point x="241" y="-110"/>
      <point x="168" y="-110" type="curve" smooth="yes"/>
      <point x="68" y="-110" type="line"/>
      <point x="68" y="-200" type="line"/>
      <point x="219" y="-200" type="line" smooth="yes"/>
      <point x="329" y="-200"/>
      <point x="344" y="-113"/>
      <point x="344" y="-23" type="curve" smooth="yes"/>
    </contour>
  </outline>
</glyph>
<glyph name="j" format="2">
  <advance width="620"/>
  <unicode hex="006A"/>
  <anchor x="340" y="-200" name="bottom"/>
  <anchor x="340" y="550" name="top"/>
  <outline>
    <contour>
      <point x="340" y="606" type="curve" smooth="yes"/>
      <point x="385" y="606"/>
      <point x="420" y="641"/>
      <point x="420" y="686" type="curve" smooth="yes"/>
      <point x="420" y="730"/>
      <point x="385" y="766"/>
      <point x="340" y="766" type="curve" smooth="yes"/>
      <point x="297" y="766"/>
      <point x="260" y="730"/>
      <point x="260" y="686" type="curve" smooth="yes"/>
      <point x="260" y="641"/>
      <point x="297" y="606"/>
    </contour>
    <component base="jdotless"/>
  </outline>
</glyph>
<glyph name="w" format="2">
  <advance width="620"/>
  <unicode hex="0077"/>
  <anchor x="310" y="0" name="bottom"/>
  <anchor x="310" y="550" name="top"/>
  <outline>
    <contour>
      <point x="41" y="550" type="line"/>
      <point x="48" y="307"/>
      <point x="72" y="123"/>
      <point x="111" y="0" type="curve"/>
      <point x="199" y="0" type="line"/>
      <point x="162" y="123"/>
      <point x="142" y="307"/>
      <point x="137" y="550" type="curve"/>
    </contour>
    <contour>
      <point x="343" y="377" type="line"/>
      <point x="269" y="377" type="line"/>
      <point x="145" y="0" type="line"/>
      <point x="231" y="0" type="line"/>
    </contour>
    <contour>
      <point x="277" y="377" type="line"/>
      <point x="389" y="0" type="line"/>
      <point x="475" y="0" type="line"/>
      <point x="351" y="377" type="line"/>
    </contour>
    <contour>
      <point x="579" y="550" type="curve"/>
      <point x="483" y="550" type="line"/>
      <point x="478" y="307"/>
      <point x="458" y="123"/>
      <point x="421" y="0" type="curve"/>
      <point x="509" y="0" type="line"/>
      <point x="548" y="123"/>
      <point x="572" y="307"/>
    </contour>
  </outline>
</glyph>
<glyph name="bar" format="2">
  <advance width="620"/>
  <unicode hex="007C"/>
  <outline>
    <contour>
      <point x="359" y="766" type="line"/>
      <point x="261" y="766" type="line"/>
      <point x="261" y="-160" type="line"/>
      <point x="359" y="-160" type="line"/>
    </contour>
  </outline>
</glyph>
<glyph name="exclamdown" format="2">
  <advance width="620"/>
  <unicode hex="00A1"/>
  <outline>
    <contour>
      <point x="310" y="552" type="curve" smooth="yes"/>
      <point x="269" y="552"/>
      <point x="234" y="517"/>
      <point x="234" y="476" type="curve" smooth="yes"/>
      <point x="234" y="435"/>
      <point x="269" y="400"/>
      <point x="310" y="400" type="curve" smooth="yes"/>
      <point x="351" y="400"/>
      <point x="386" y="435"/>
      <point x="386" y="476" type="curve" smooth="yes"/>
      <point x="386" y="517"/>
      <point x="351" y="552"/>
    </contour>
    <contour>
      <point x="228" y="-200" type="curve"/>
      <point x="392" y="-200" type="line"/>
      <point x="385" y="-35"/>
      <point x="365" y="150"/>
      <point x="357" y="315" type="curve"/>
      <point x="263" y="315" type="line"/>
      <point x="255" y="150"/>
      <point x="235" y="-35"/>
    </contour>
  </outline>
</glyph>
<glyph name="ordfeminine" format="2">
  <advance width="620"/>
  <unicode hex="00AA"/>
  <outline>
    <contour>
      <point x="339" y="474" type="curve" smooth="yes"/>
      <point x="339" y="629" type="line" smooth="yes"/>
      <point x="339" y="711"/>
      <point x="263" y="726"/>
      <point x="221" y="726" type="curve" smooth="yes"/>
      <point x="178" y="726"/>
      <point x="128" y="712"/>
      <point x="88" y="692" type="curve"/>
      <point x="124" y="637" type="line"/>
      <point x="158" y="654"/>
      <point x="192" y="664"/>
      <point x="219" y="664" type="curve" smooth="yes"/>
      <point x="267" y="664"/>
      <point x="275" y="642"/>
      <point x="275" y="604" type="curve" smooth="yes"/>
      <point x="275" y="602" type="line"/>
      <point x="201" y="604"/>
      <point x="80" y="585"/>
      <point x="80" y="481" type="curve" smooth="yes"/>
      <point x="80" y="413"/>
      <point x="142" y="381"/>
      <point x="190" y="381" type="curve" smooth="yes"/>
      <point x="235" y="381"/>
      <point x="261" y="394"/>
      <point x="286" y="420" type="curve"/>
      <point x="299" y="395"/>
      <point x="323" y="383"/>
      <point x="367" y="384" type="curve"/>
      <point x="367" y="442" type="line"/>
      <point x="342" y="443"/>
      <point x="339" y="453"/>
    </contour>
    <contour>
      <point x="147" y="486" type="curve" smooth="yes"/>
      <point x="147" y="535"/>
      <point x="217" y="546"/>
      <point x="274" y="542" type="curve"/>
      <point x="274" y="488" type="line"/>
      <point x="263" y="468"/>
      <point x="237" y="442"/>
      <point x="199" y="442" type="curve" smooth="yes"/>
      <point x="170" y="442"/>
      <point x="147" y="459"/>
    </contour>
  </outline>
</glyph>
<glyph name="periodcentered" format="2">
  <advance width="620"/>
  <unicode hex="00B7"/>
  <outline>
    <contour>
      <point x="310" y="267" type="curve" smooth="yes"/>
      <point x="356" y="267"/>
      <point x="393" y="304"/>
      <point x="393" y="350" type="curve" smooth="yes"/>
      <point x="393" y="396"/>
      <point x="356" y="433"/>
      <point x="310" y="433" type="curve" smooth="yes"/>
      <point x="264" y="433"/>
      <point x="227" y="396"/>
      <point x="227" y="350" type="curve" smooth="yes"/>
      <point x="227" y="304"/>
      <point x="264" y="267"/>
    </contour>
  </outline>
</glyph>
<glyph name="ordmasculine" format="2">
  <advance width="620"/>
  <unicode hex="00BA"/>
  <outline>
    <contour>
      <point x="228" y="381" type="curve" smooth="yes"/>
      <point x="323" y="381"/>
      <point x="375" y="450"/>
      <point x="375" y="554" type="curve" smooth="yes"/>
      <point x="375" y="658"/>
      <point x="325" y="726"/>
      <point x="228" y="726" type="curve" smooth="yes"/>
      <point x="133" y="726"/>
      <point x="81" y="658"/>
      <point x="81" y="554" type="curve" smooth="yes"/>
      <point x="81" y="450"/>
      <point x="133" y="381"/>
    </contour>
    <contour>
      <point x="228" y="452" type="curve" smooth="yes"/>
      <point x="174" y="452"/>
      <point x="151" y="493"/>
      <point x="151" y="554" type="curve" smooth="yes"/>
      <point x="151" y="615"/>
      <point x="170" y="656"/>
      <point x="228" y="656" type="curve" smooth="yes"/>
      <point x="282" y="656"/>
      <point x="305" y="615"/>
      <point x="305" y="554" type="curve" smooth="yes"/>
      <point x="305" y="493"/>
      <point x="282" y="452"/>
    </contour>
  </outline>
</glyph>
<glyph name="Eth" format="2">
  <advance width="620"/>
  <unicode hex="00D0"/>
  <outline>
    <contour>
      <point x="93" y="710" type="line"/>
      <point x="93" y="0" type="line"/>
      <point x="191" y="0" type="line"/>
      <point x="191" y="710" type="line"/>
    </contour>
    <contour>
      <point x="190" y="88" type="curve"/>
      <point x="190" y="0" type="line"/>
      <point x="214" y="0"/>
      <point x="266" y="0"/>
      <point x="290" y="0" type="curve" smooth="yes"/>
      <point x="483" y="0"/>
      <point x="600" y="140"/>
      <point x="600" y="377" type="curve" smooth="yes"/>
      <point x="600" y="624"/>
      <point x="451" y="710"/>
      <point x="296" y="710" type="curve" smooth="yes"/>
      <point x="261" y="710"/>
      <point x="229" y="710"/>
      <point x="190" y="710" type="curve"/>
      <point x="190" y="622" type="line"/>
      <point x="231" y="622"/>
      <point x="264" y="622"/>
      <point x="296" y="622" type="curve" smooth="yes"/>
      <point x="418" y="622"/>
      <point x="502" y="535"/>
      <point x="502" y="377" type="curve" smooth="yes"/>
      <point x="502" y="241"/>
      <point x="456" y="88"/>
      <point x="290" y="88" type="curve" smooth="yes"/>
      <point x="270" y="88"/>
      <point x="216" y="88"/>
    </contour>
    <contour>
      <point x="16" y="391" type="line"/>
      <point x="16" y="305" type="line"/>
      <point x="347" y="305" type="line"/>
      <point x="347" y="391" type="line"/>
    </contour>
  </outline>
</glyph>
<glyph name="Oslash" format="2">
  <advance width="620"/>
  <unicode hex="00D8"/>
  <anchor x="310" y="0" name="bottom"/>
  <anchor x="400" y="0" name="ogonek"/>
  <anchor x="310" y="710" name="top"/>
  <anchor x="463" y="679" name="topright"/>
  <outline>
    <contour>
      <point x="22" y="-86" type="line"/>
      <point x="114" y="-86" type="line"/>
      <point x="598" y="790" type="line"/>
      <point x="598" y="796" type="line"/>
      <point x="506" y="796" type="line"/>
      <point x="22" y="-80" type="line"/>
    </contour>
    <component base="O"/>
  </outline>
</glyph>
<glyph name="oslash" format="2">
  <advance width="620"/>
  <unicode hex="00F8"/>
  <anchor x="310" y="0" name="bottom"/>
  <anchor x="400" y="0" name="ogonek"/>
  <anchor x="310" y="550" name="top"/>
  <anchor x="450" y="523" name="topright"/>
  <outline>
    <contour>
      <point x="32" y="-86" type="line"/>
      <point x="124" y="-86" type="line"/>
      <point x="588" y="631" type="line"/>
      <point x="588" y="637" type="line"/>
      <point x="496" y="637" type="line"/>
      <point x="32" y="-80" type="line"/>
    </contour>
    <component base="o"/>
  </outline>
</glyph>
<glyph name="dcaron" format="2">
  <advance width="620"/>
  <unicode hex="010F"/>
  <outline>
    <contour>
      <point x="446" y="46" type="line"/>
      <point x="446" y="750" type="line"/>
      <point x="352" y="750" type="line"/>
      <point x="352" y="4" type="line"/>
    </contour>
    <contour>
      <point x="442" y="42" type="curve"/>
      <point x="392" y="105" type="line"/>
      <point x="356" y="81"/>
      <point x="317" y="70"/>
      <point x="271" y="70" type="curve" smooth="yes"/>
      <point x="190" y="70"/>
      <point x="114" y="151"/>
      <point x="114" y="273" type="curve" smooth="yes"/>
      <point x="114" y="387"/>
      <point x="162" y="470"/>
      <point x="264" y="470" type="curve" smooth="yes"/>
      <point x="315" y="470"/>
      <point x="366" y="437"/>
      <point x="374" y="395" type="curve"/>
      <point x="417" y="395" type="line"/>
      <point x="410" y="484"/>
      <point x="344" y="558"/>
      <point x="244" y="558" type="curve" smooth="yes"/>
      <point x="124" y="558"/>
      <point x="20" y="450"/>
      <point x="20" y="273" type="curve" smooth="yes"/>
      <point x="20" y="100"/>
      <point x="141" y="-17"/>
      <point x="271" y="-17" type="curve" smooth="yes"/>
      <point x="342" y="-17"/>
      <point x="398" y="12"/>
    </contour>
    <contour>
      <point x="446" y="131" type="curve"/>
      <point x="359" y="70" type="line"/>
      <point x="378" y="16"/>
      <point x="420" y="-12"/>
      <point x="510" y="-8" type="curve"/>
      <point x="510" y="73" type="line"/>
      <point x="467" y="75"/>
      <point x="446" y="95"/>
    </contour>
    <component base="caroncomb.alt"/>
  </outline>
</glyph>
<glyph name="Hbar" format="2">
  <advance width="620"/>
  <unicode hex="0126"/>
  <anchor x="310" y="0" name="bottom"/>
  <anchor x="310" y="710" name="top"/>
  <outline>
    <contour>
      <point x="14" y="604" type="line"/>
      <point x="14" y="530" type="line"/>
      <point x="606" y="530" type="line"/>
      <point x="606" y="604" type="line"/>
    </contour>
    <component base="H"/>
  </outline>
</glyph>
<glyph name="Lslash" format="2">
  <advance width="620"/>
  <unicode hex="0141"/>
  <anchor x="320" y="0" name="bottom"/>
  <anchor x="199" y="355" name="center"/>
  <anchor x="150" y="710" name="top"/>
  <anchor x="199" y="710" name="topright"/>
  <outline>
    <contour>
      <point x="406" y="540" type="line"/>
      <point x="400" y="540" type="line"/>
      <point x="22" y="317" type="line"/>
      <point x="22" y="225" type="line"/>
      <point x="28" y="225" type="line"/>
      <point x="406" y="448" type="line"/>
    </contour>
    <component base="L"/>
  </outline>
</glyph>
<glyph name="OE" format="2">
  <advance width="620"/>
  <unicode hex="0152"/>
  <anchor x="310" y="0" name="bottom"/>
  <anchor x="310" y="710" name="top"/>
  <outline>
    <contour>
      <point x="299" y="572" type="curve"/>
      <point x="352" y="644" type="line"/>
      <point x="322" y="686"/>
      <point x="284" y="726"/>
      <point x="220" y="726" type="curve" smooth="yes"/>
      <point x="69" y="726"/>
      <point x="17" y="558"/>
      <point x="20" y="354" type="curve" smooth="yes"/>
      <point x="23" y="150"/>
      <point x="69" y="-16"/>
      <point x="220" y="-16" type="curve" smooth="yes"/>
      <point x="281" y="-16"/>
      <point x="317" y="17"/>
      <point x="348" y="62" type="curve"/>
      <point x="302" y="147" type="line"/>
      <point x="291" y="102"/>
      <point x="266" y="76"/>
      <point x="221" y="76" type="curve" smooth="yes"/>
      <point x="142" y="76"/>
      <point x="115" y="208"/>
      <point x="115" y="355" type="curve" smooth="yes"/>
      <point x="115" y="501"/>
      <point x="142" y="634"/>
      <point x="221" y="634" type="curve" smooth="yes"/>
      <point x="265" y="634"/>
      <point x="288" y="611"/>
    </contour>
    <contour>
      <point x="338" y="710" type="line"/>
      <point x="298" y="660" type="line"/>
      <point x="298" y="50" type="line"/>
      <point x="338" y="0" type="line"/>
      <point x="384" y="0" type="line"/>
      <point x="384" y="710" type="line"/>
    </contour>
    <contour>
      <point x="585" y="710" type="line"/>
      <point x="348" y="710" type="line"/>
      <point x="347" y="626" type="line"/>
      <point x="585" y="626" type="line"/>
    </contour>
    <contour>
      <point x="593" y="84" type="line"/>
      <point x="350" y="84" type="line"/>
      <point x="350" y="0" type="line"/>
      <point x="593" y="0" type="line"/>
    </contour>
    <contour>
      <point x="564" y="392" type="line"/>
      <point x="325" y="392" type="line"/>
      <point x="325" y="308" type="line"/>
      <point x="564" y="308" type="line"/>
    </contour>
  </outline>
</glyph>
<glyph name="oe" format="2">
  <advance width="620"/>
  <unicode hex="0153"/>
  <anchor x="310" y="0" name="bottom"/>
  <anchor x="310" y="550" name="top"/>
  <outline>
    <contour>
      <point x="184" y="-16" type="curve" smooth="yes"/>
      <point x="309" y="-16"/>
      <point x="344" y="128"/>
      <point x="344" y="275" type="curve" smooth="yes"/>
      <point x="344" y="421"/>
      <point x="309" y="566"/>
      <point x="184" y="566" type="curve" smooth="yes"/>
      <point x="54" y="566"/>
      <point x="18" y="423"/>
      <point x="18" y="275" type="curve" smooth="yes"/>
      <point x="18" y="126"/>
      <point x="54" y="-16"/>
    </contour>
    <contour>
      <point x="184" y="66" type="curve" smooth="yes"/>
      <point x="105" y="66"/>
      <point x="97" y="206"/>
      <point x="97" y="276" type="curve" smooth="yes"/>
      <point x="97" y="345"/>
      <point x="104" y="485"/>
      <point x="184" y="485" type="curve" smooth="yes"/>
      <point x="259" y="485"/>
      <point x="266" y="345"/>
      <point x="266" y="276" type="curve" smooth="yes"/>
      <point x="266" y="206"/>
      <point x="259" y="66"/>
    </contour>
    <contour>
      <point x="451" y="-16" type="curve" smooth="yes"/>
      <point x="487" y="-16"/>
      <point x="533" y="-8"/>
      <point x="587" y="41" type="curve"/>
      <point x="542" y="104" type="line"/>
      <point x="508" y="75"/>
      <point x="480" y="64"/>
      <point x="451" y="64" type="curve" smooth="yes"/>
      <point x="380" y="64"/>
      <point x="342" y="143"/>
      <point x="346" y="239" type="curve"/>
      <point x="590" y="239" type="line"/>
      <point x="620" y="405"/>
      <point x="569" y="566"/>
      <point x="438" y="566" type="curve" smooth="yes"/>
      <point x="342" y="566"/>
      <point x="270" y="465"/>
      <point x="270" y="273" type="curve" smooth="yes"/>
      <point x="270" y="124"/>
      <point x="320" y="-16"/>
    </contour>
    <contour>
      <point x="345" y="312" type="line"/>
      <point x="346" y="420"/>
      <point x="384" y="485"/>
      <point x="438" y="485" type="curve" smooth="yes"/>
      <point x="496" y="485"/>
      <point x="531" y="403"/>
      <point x="523" y="312" type="curve"/>
    </contour>
  </outline>
</glyph>
<glyph name="Tcedilla" format="2">
  <advance width="620"/>
  <unicode hex="0162"/>
  <anchor x="310" y="-238" name="bottom"/>
  <anchor x="310" y="710" name="top"/>
  <outline>
    <contour>
      <point x="349" y="11" type="line"/>
      <point x="282" y="11" type="line"/>
      <point x="242" y="-67" type="line"/>
      <point x="267" y="-101" type="line"/>
      <point x="339" y="-77"/>
      <point x="375" y="-97"/>
      <point x="374" y="-129" type="curve" smooth="yes"/>
      <point x="373" y="-163"/>
      <point x="332" y="-178"/>
      <point x="302" y="-178" type="curve" smooth="yes"/>
      <point x="276" y="-178"/>
      <point x="237" y="-170"/>
      <point x="203" y="-149" type="curve"/>
      <point x="178" y="-202" type="line"/>
      <point x="210" y="-223"/>
      <point x="254" y="-238"/>
      <point x="300" y="-238" type="curve" smooth="yes"/>
      <point x="378" y="-238"/>
      <point x="439" y="-198"/>
      <point x="441" y="-126" type="curve" smooth="yes"/>
      <point x="442" y="-82"/>
      <point x="402" y="-28"/>
      <point x="319" y="-40" type="curve"/>
    </contour>
    <component base="T"/>
  </outline>
</glyph>
<glyph name="Tbar" format="2">
  <advance width="620"/>
  <unicode hex="0166"/>
  <anchor x="310" y="0" name="bottom"/>
  <anchor x="310" y="710" name="top"/>
  <outline>
    <contour>
      <point x="104" y="404" type="line"/>
      <point x="104" y="330" type="line"/>
      <point x="516" y="330" type="line"/>
      <point x="516" y="404" type="line"/>
    </contour>
    <component base="T"/>
  </outline>
</glyph>
<glyph name="Uogonek" format="2">
  <advance width="620"/>
  <unicode hex="0172"/>
  <anchor x="310" y="0" name="bottom"/>
  <anchor x="400" y="0" name="ogonek"/>
  <anchor x="310" y="710" name="top"/>
  <anchor x="507" y="710" name="topright"/>
  <outline>
    <contour>
      <point x="465" y="710" type="line"/>
      <point x="465" y="277" type="line"/>
      <point x="465" y="139"/>
      <point x="392" y="83"/>
      <point x="310" y="83" type="curve"/>
      <point x="228" y="83"/>
      <point x="155" y="139"/>
      <point x="155" y="277" type="curve"/>
      <point x="155" y="710" type="line"/>
      <point x="55" y="710" type="line"/>
      <point x="55" y="277" type="line" smooth="yes"/>
      <point x="55" y="55"/>
      <point x="193" y="-15"/>
      <point x="310" y="-15" type="curve"/>
      <point x="427" y="-15"/>
      <point x="565" y="55"/>
      <point x="565" y="277" type="curve" smooth="yes"/>
      <point x="565" y="710" type="line"/>
    </contour>
    <component base="ogonekcomb.case"/>
  </outline>
</glyph>
<glyph name="Ohorn" format="2">
  <advance width="620"/>
  <unicode hex="01A0"/>
  <anchor x="300" y="0" name="bottom"/>
  <anchor x="310" y="355" name="center"/>
  <anchor x="300" y="710" name="top"/>
  <anchor x="40" y="710" name="topleft"/>
  <anchor x="453" y="679" name="topright"/>
  <outline>
    <contour>
      <point x="300" y="-16" type="curve" smooth="yes"/>
      <point x="499" y="-16"/>
      <point x="570" y="148"/>
      <point x="570" y="355" type="curve" smooth="yes"/>
      <point x="570" y="562"/>
      <point x="499" y="726"/>
      <point x="300" y="726" type="curve" smooth="yes"/>
      <point x="102" y="726"/>
      <point x="30" y="562"/>
      <point x="30" y="355" type="curve" smooth="yes"/>
      <point x="30" y="148"/>
      <point x="102" y="-16"/>
    </contour>
    <contour>
      <point x="300" y="73" type="curve" smooth="yes"/>
      <point x="162" y="73"/>
      <point x="129" y="205"/>
      <point x="129" y="355" type="curve" smooth="yes"/>
      <point x="129" y="504"/>
      <point x="162" y="637"/>
      <point x="300" y="637" type="curve" smooth="yes"/>
      <point x="438" y="637"/>
      <point x="471" y="504"/>
      <point x="471" y="355" type="curve" smooth="yes"/>
      <point x="471" y="205"/>
      <point x="438" y="73"/>
    </contour>
    <component base="horncomb.case" xOffset="211" yOffset="-81"/>
  </outline>
</glyph>
<glyph name="Uhorn" format="2">
  <advance width="620"/>
  <unicode hex="01AF"/>
  <anchor x="277" y="-15" name="bottom"/>
  <anchor x="277" y="710" name="top"/>
  <anchor x="469" y="710" name="topright"/>
  <outline>
    <contour>
      <point x="415" y="710" type="line"/>
      <point x="415" y="277" type="line"/>
      <point x="415" y="139"/>
      <point x="351" y="82"/>
      <point x="277" y="82" type="curve"/>
      <point x="203" y="82"/>
      <point x="140" y="139"/>
      <point x="140" y="277" type="curve"/>
      <point x="140" y="710" type="line"/>
      <point x="40" y="710" type="line"/>
      <point x="40" y="277" type="line" smooth="yes"/>
      <point x="40" y="55"/>
      <point x="168" y="-15"/>
      <point x="277" y="-15" type="curve"/>
      <point x="386" y="-15"/>
      <point x="515" y="55"/>
      <point x="515" y="277" type="curve" smooth="yes"/>
      <point x="515" y="710" type="line"/>
    </contour>
    <component base="horncomb.case" xOffset="226" yOffset="-51"/>
  </outline>
</glyph>
<glyph name="ringhalfleft" format="2">
  <advance width="620"/>
  <unicode hex="02BF"/>
  <outline>
    <contour>
  </contour>
    <contour>
      <point x="372" y="692" type="curve"/>
      <point x="372" y="750" type="line"/>
      <point x="261" y="750"/>
      <point x="200" y="684"/>
      <point x="200" y="596" type="curve" smooth="yes"/>
      <point x="200" y="508"/>
      <point x="261" y="442"/>
      <point x="372" y="442" type="curve"/>
      <point x="372" y="500" type="line"/>
      <point x="300" y="500"/>
      <point x="263" y="546"/>
      <point x="263" y="595" type="curve" smooth="yes"/>
      <point x="263" y="649"/>
      <point x="300" y="692"/>
    </contour>
  </outline>
</glyph>
<glyph name="gravecomb" format="2">
  <unicode hex="0300"/>
  <anchor x="310" y="550" name="_top"/>
  <anchor x="310" y="786" name="top"/>
  <outline>
    <contour>
      <point x="286" y="786" type="line"/>
      <point x="172" y="786" type="line"/>
      <point x="172" y="780" type="line"/>
      <point x="277" y="628" type="line"/>
      <point x="348" y="628" type="line"/>
    </contour>
  </outline>
</glyph>
<glyph name="circumflexcomb" format="2">
  <unicode hex="0302"/>
  <anchor x="310" y="550" name="_top"/>
  <anchor x="310" y="786" name="top"/>
  <outline>
    <contour>
      <point x="357" y="786" type="line"/>
      <point x="263" y="786" type="line"/>
      <point x="263" y="780" type="line"/>
      <point x="394" y="628" type="line"/>
      <point x="479" y="628" type="line"/>
    </contour>
    <contour>
      <point x="263" y="786" type="line"/>
      <point x="141" y="628" type="line"/>
      <point x="226" y="628" type="line"/>
      <point x="357" y="780" type="line"/>
      <point x="357" y="786" type="line"/>
    </contour>
  </outline>
</glyph>
<glyph name="tildecomb" format="2">
  <unicode hex="0303"/>
  <anchor x="310" y="550" name="_top"/>
  <outline>
    <contour>
      <point x="494" y="717" type="curve"/>
      <point x="442" y="761" type="line"/>
      <point x="381" y="692"/>
      <point x="384" y="691"/>
      <point x="332" y="730" type="curve" smooth="yes"/>
      <point x="252" y="790"/>
      <point x="233" y="802"/>
      <point x="126" y="689" type="curve"/>
      <point x="178" y="643" type="line"/>
      <point x="247" y="711"/>
      <point x="241" y="714"/>
      <point x="307" y="666" type="curve" smooth="yes"/>
      <point x="380" y="613"/>
      <point x="401" y="607"/>
    </contour>
  </outline>
</glyph>
<glyph name="brevecomb" format="2">
  <unicode hex="0306"/>
  <anchor x="310" y="550" name="_top"/>
  <outline>
    <contour>
      <point x="471" y="787" type="curve"/>
      <point x="395" y="787" type="line"/>
      <point x="394" y="728"/>
      <point x="360" y="691"/>
      <point x="310" y="691" type="curve" smooth="yes"/>
      <point x="260" y="691"/>
      <point x="226" y="728"/>
      <point x="225" y="787" type="curve"/>
      <point x="149" y="787" type="line"/>
      <point x="150" y="693"/>
      <point x="214" y="624"/>
      <point x="310" y="624" type="curve" smooth="yes"/>
      <point x="406" y="624"/>
      <point x="470" y="693"/>
    </contour>
  </outline>
</glyph>
<glyph name="dotaccentcomb" format="2">
  <unicode hex="0307"/>
  <anchor x="310" y="550" name="_top"/>
  <outline>
    <contour>
      <point x="310" y="628" type="curve" smooth="yes"/>
      <point x="349" y="628"/>
      <point x="379" y="658"/>
      <point x="379" y="697" type="curve" smooth="yes"/>
      <point x="379" y="735"/>
      <point x="349" y="766"/>
      <point x="310" y="766" type="curve" smooth="yes"/>
      <point x="273" y="766"/>
      <point x="241" y="735"/>
      <point x="241" y="697" type="curve" smooth="yes"/>
      <point x="241" y="658"/>
      <point x="273" y="628"/>
    </contour>
  </outline>
</glyph>
<glyph name="dieresiscomb" format="2">
  <unicode hex="0308"/>
  <anchor x="310" y="555" name="_top"/>
  <outline>
    <contour>
      <point x="153" y="750" type="line"/>
      <point x="153" y="637" type="line"/>
      <point x="266" y="637" type="line"/>
      <point x="266" y="750" type="line"/>
    </contour>
    <contour>
      <point x="354" y="750" type="line"/>
      <point x="354" y="637" type="line"/>
      <point x="467" y="637" type="line"/>
      <point x="467" y="750" type="line"/>
    </contour>
  </outline>
</glyph>
<glyph name="hookabovecomb" format="2">
  <unicode hex="0309"/>
  <anchor x="310" y="550" name="_top"/>
  <outline>
    <contour>
      <point x="276" y="648" type="curve" smooth="yes"/>
      <point x="276" y="631"/>
      <point x="276" y="641"/>
      <point x="276" y="627" type="curve"/>
      <point x="348" y="627" type="line"/>
      <point x="350" y="639" type="line" smooth="yes"/>
      <point x="351" y="647"/>
      <point x="356" y="651"/>
      <point x="363" y="656" type="curve" smooth="yes"/>
      <point x="379" y="667"/>
      <point x="393" y="674"/>
      <point x="417" y="692" type="curve" smooth="yes"/>
      <point x="443" y="712"/>
      <point x="443" y="742"/>
      <point x="426" y="764" type="curve" smooth="yes"/>
      <point x="401" y="797"/>
      <point x="323" y="817"/>
      <point x="201" y="814" type="curve"/>
      <point x="201" y="751" type="line"/>
      <point x="251" y="752"/>
      <point x="337" y="752"/>
      <point x="361" y="737" type="curve" smooth="yes"/>
      <point x="368" y="732"/>
      <point x="367" y="722"/>
      <point x="362" y="718" type="curve" smooth="yes"/>
      <point x="343" y="703"/>
      <point x="322" y="697"/>
      <point x="292" y="675" type="curve" smooth="yes"/>
      <point x="283" y="668"/>
      <point x="276" y="661"/>
    </contour>
  </outline>
</glyph>
<glyph name="ringcomb" format="2">
  <unicode hex="030A"/>
  <anchor x="310" y="550" name="_top"/>
  <anchor x="310" y="815" name="top"/>
  <outline>
    <contour>
      <point x="310" y="611" type="curve" smooth="yes"/>
      <point x="378" y="611"/>
      <point x="416" y="659"/>
      <point x="416" y="712" type="curve" smooth="yes"/>
      <point x="416" y="768"/>
      <point x="379" y="815"/>
      <point x="310" y="815" type="curve" smooth="yes"/>
      <point x="240" y="815"/>
      <point x="204" y="768"/>
      <point x="204" y="713" type="curve" smooth="yes"/>
      <point x="204" y="659"/>
      <point x="241" y="611"/>
    </contour>
    <contour>
      <point x="310" y="666" type="curve" smooth="yes"/>
      <point x="282" y="666"/>
      <point x="263" y="687"/>
      <point x="263" y="713" type="curve" smooth="yes"/>
      <point x="263" y="739"/>
      <point x="282" y="760"/>
      <point x="310" y="760" type="curve" smooth="yes"/>
      <point x="338" y="760"/>
      <point x="357" y="739"/>
      <point x="357" y="713" type="curve" smooth="yes"/>
      <point x="357" y="687"/>
      <point x="338" y="666"/>
    </contour>
  </outline>
</glyph>
<glyph name="caroncomb" format="2">
  <unicode hex="030C"/>
  <anchor x="310" y="550" name="_top"/>
  <anchor x="310" y="786" name="top"/>
  <outline>
    <contour>
      <point x="263" y="628" type="line"/>
      <point x="357" y="628" type="line"/>
      <point x="357" y="634" type="line"/>
      <point x="226" y="786" type="line"/>
      <point x="141" y="786" type="line"/>
    </contour>
    <contour>
      <point x="357" y="628" type="line"/>
      <point x="479" y="786" type="line"/>
      <point x="394" y="786" type="line"/>
      <point x="263" y="634" type="line"/>
      <point x="263" y="628" type="line"/>
    </contour>
  </outline>
</glyph>
<glyph name="dotbelowcomb" format="2">
  <unicode hex="0323"/>
  <anchor x="310" y="0" name="_bottom"/>
  <outline>
    <contour>
      <point x="310" y="-206" type="curve" smooth="yes"/>
      <point x="349" y="-206"/>
      <point x="379" y="-176"/>
      <point x="379" y="-137" type="curve" smooth="yes"/>
      <point x="379" y="-99"/>
      <point x="349" y="-68"/>
      <point x="310" y="-68" type="curve" smooth="yes"/>
      <point x="273" y="-68"/>
      <point x="241" y="-99"/>
      <point x="241" y="-137" type="curve" smooth="yes"/>
      <point x="241" y="-176"/>
      <point x="273" y="-206"/>
    </contour>
  </outline>
</glyph>
<glyph name="dieresisbelowcomb" format="2">
  <unicode hex="0324"/>
  <anchor x="310" y="0" name="_bottom"/>
  <outline>
    <contour>
      <point x="158" y="-58" type="line"/>
      <point x="158" y="-164" type="line"/>
      <point x="264" y="-164" type="line"/>
      <point x="264" y="-58" type="line"/>
    </contour>
    <contour>
      <point x="356" y="-58" type="line"/>
      <point x="356" y="-164" type="line"/>
      <point x="462" y="-164" type="line"/>
      <point x="462" y="-58" type="line"/>
    </contour>
  </outline>
</glyph>
<glyph name="commaaccentcomb" format="2">
  <unicode hex="0326"/>
  <anchor x="310" y="0" name="_bottom"/>
  <outline>
    <contour>
      <point x="261" y="-170" type="line"/>
      <point x="216" y="-296" type="line"/>
      <point x="264" y="-296" type="line"/>
      <point x="364" y="-170" type="line"/>
    </contour>
    <contour>
      <point x="313" y="-194" type="curve" smooth="yes"/>
      <point x="350" y="-194"/>
      <point x="380" y="-163"/>
      <point x="380" y="-124" type="curve" smooth="yes"/>
      <point x="380" y="-88"/>
      <point x="350" y="-56"/>
      <point x="313" y="-56" type="curve" smooth="yes"/>
      <point x="274" y="-56"/>
      <point x="243" y="-88"/>
      <point x="243" y="-124" type="curve" smooth="yes"/>
      <point x="243" y="-163"/>
      <point x="274" y="-194"/>
    </contour>
  </outline>
</glyph>
<glyph name="cedillacomb" format="2">
  <unicode hex="0327"/>
  <anchor x="310" y="0" name="_bottom"/>
  <outline>
    <contour>
      <point x="267" y="-106" type="line"/>
      <point x="339" y="-82"/>
      <point x="375" y="-102"/>
      <point x="374" y="-131" type="curve" smooth="yes"/>
      <point x="373" y="-164"/>
      <point x="332" y="-178"/>
      <point x="302" y="-178" type="curve" smooth="yes"/>
      <point x="276" y="-178"/>
      <point x="237" y="-170"/>
      <point x="203" y="-149" type="curve"/>
      <point x="178" y="-202" type="line"/>
      <point x="210" y="-223"/>
      <point x="254" y="-238"/>
      <point x="300" y="-238" type="curve" smooth="yes"/>
      <point x="378" y="-238"/>
      <point x="439" y="-197"/>
      <point x="441" y="-127" type="curve" smooth="yes"/>
      <point x="442" y="-87"/>
      <point x="399" y="-34"/>
      <point x="314" y="-46" type="curve"/>
      <point x="362" y="41" type="line"/>
      <point x="297" y="41" type="line"/>
      <point x="242" y="-71" type="line"/>
    </contour>
  </outline>
</glyph>
<glyph name="ogonekcomb" format="2">
  <unicode hex="0328"/>
  <anchor x="411" y="3" name="_ogonek"/>
  <outline>
    <contour>
      <point x="411" y="3" type="curve"/>
      <point x="395" y="43" type="line"/>
      <point x="281" y="-3"/>
      <point x="205" y="-55"/>
      <point x="220" y="-126" type="curve" smooth="yes"/>
      <point x="231" y="-180"/>
      <point x="307" y="-214"/>
      <point x="392" y="-229" type="curve"/>
      <point x="408" y="-161" type="line"/>
      <point x="375" y="-153"/>
      <point x="300" y="-142"/>
      <point x="293" y="-108" type="curve" smooth="yes"/>
      <point x="285" y="-71"/>
      <point x="324" y="-36"/>
    </contour>
  </outline>
</glyph>
<glyph name="baht" format="2">
  <advance width="620"/>
  <unicode hex="0E3F"/>
  <outline>
    <contour>
      <point x="95" y="681" type="line"/>
      <point x="95" y="29" type="line"/>
      <point x="178" y="29" type="line"/>
      <point x="178" y="681" type="line"/>
    </contour>
    <contour>
      <point x="177" y="400" type="curve"/>
      <point x="177" y="337" type="line"/>
      <point x="242" y="337"/>
      <point x="261" y="337"/>
      <point x="312" y="337" type="curve" smooth="yes"/>
      <point x="427" y="337"/>
      <point x="526" y="406"/>
      <point x="526" y="517" type="curve" smooth="yes"/>
      <point x="526" y="622"/>
      <point x="431" y="681"/>
      <point x="312" y="681" type="curve" smooth="yes"/>
      <point x="270" y="681"/>
      <point x="249" y="681"/>
      <point x="177" y="681" type="curve"/>
      <point x="177" y="603" type="line"/>
      <point x="249" y="603"/>
      <point x="271" y="603"/>
      <point x="312" y="603" type="curve" smooth="yes"/>
      <point x="373" y="603"/>
      <point x="441" y="574"/>
      <point x="441" y="506" type="curve" smooth="yes"/>
      <point x="441" y="428"/>
      <point x="367" y="400"/>
      <point x="312" y="400" type="curve" smooth="yes"/>
      <point x="261" y="400"/>
      <point x="243" y="400"/>
    </contour>
    <contour>
      <point x="177" y="107" type="curve"/>
      <point x="177" y="29" type="line"/>
      <point x="242" y="29"/>
      <point x="266" y="29"/>
      <point x="317" y="29" type="curve" smooth="yes"/>
      <point x="433" y="29"/>
      <point x="555" y="82"/>
      <point x="555" y="214" type="curve" smooth="yes"/>
      <point x="555" y="347"/>
      <point x="434" y="389"/>
      <point x="312" y="389" type="curve"/>
      <point x="273" y="389"/>
      <point x="249" y="389"/>
      <point x="177" y="389" type="curve"/>
      <point x="177" y="328" type="line"/>
      <point x="249" y="328"/>
      <point x="271" y="328"/>
      <point x="312" y="328" type="curve" smooth="yes"/>
      <point x="360" y="328"/>
      <point x="470" y="322"/>
      <point x="470" y="217" type="curve" smooth="yes"/>
      <point x="470" y="119"/>
      <point x="360" y="107"/>
      <point x="317" y="107" type="curve" smooth="yes"/>
      <point x="266" y="107"/>
      <point x="243" y="107"/>
    </contour>
    <contour>
      <point x="329" y="764" type="line"/>
      <point x="261" y="764" type="line"/>
      <point x="261" y="-61" type="line"/>
      <point x="329" y="-61" type="line"/>
    </contour>
  </outline>
</glyph>
<glyph name="Hcedilla" format="2">
  <advance width="620"/>
  <unicode hex="1E28"/>
  <anchor x="310" y="0" name="bottom"/>
  <anchor x="310" y="710" name="top"/>
  <outline>
    <contour>
      <point x="176" y="27" type="line"/>
      <point x="112" y="27" type="line"/>
      <point x="64" y="-71" type="line"/>
      <point x="89" y="-106" type="line"/>
      <point x="161" y="-82"/>
      <point x="197" y="-102"/>
      <point x="196" y="-131" type="curve" smooth="yes"/>
      <point x="195" y="-164"/>
      <point x="154" y="-178"/>
      <point x="124" y="-178" type="curve" smooth="yes"/>
      <point x="98" y="-178"/>
      <point x="59" y="-170"/>
      <point x="25" y="-149" type="curve"/>
      <point x="0" y="-202" type="line"/>
      <point x="32" y="-223"/>
      <point x="76" y="-238"/>
      <point x="122" y="-238" type="curve" smooth="yes"/>
      <point x="200" y="-238"/>
      <point x="261" y="-197"/>
      <point x="263" y="-127" type="curve" smooth="yes"/>
      <point x="264" y="-87"/>
      <point x="221" y="-34"/>
      <point x="136" y="-46" type="curve"/>
    </contour>
    <component base="H"/>
  </outline>
</glyph>
<glyph name="hcedilla" format="2">
  <advance width="620"/>
  <unicode hex="1E29"/>
  <anchor x="327" y="0" name="bottom"/>
  <anchor x="310" y="750" name="top"/>
  <outline>
    <contour>
      <point x="205" y="27" type="line"/>
      <point x="141" y="27" type="line"/>
      <point x="93" y="-71" type="line"/>
      <point x="118" y="-106" type="line"/>
      <point x="190" y="-82"/>
      <point x="226" y="-102"/>
      <point x="225" y="-131" type="curve" smooth="yes"/>
      <point x="224" y="-164"/>
      <point x="183" y="-178"/>
      <point x="153" y="-178" type="curve" smooth="yes"/>
      <point x="127" y="-178"/>
      <point x="88" y="-170"/>
      <point x="54" y="-149" type="curve"/>
      <point x="29" y="-202" type="line"/>
      <point x="61" y="-223"/>
      <point x="105" y="-238"/>
      <point x="151" y="-238" type="curve" smooth="yes"/>
      <point x="229" y="-238"/>
      <point x="290" y="-197"/>
      <point x="292" y="-127" type="curve" smooth="yes"/>
      <point x="293" y="-87"/>
      <point x="250" y="-34"/>
      <point x="165" y="-46" type="curve"/>
    </contour>
    <component base="h"/>
  </outline>
</glyph>
<glyph name="Germandbls" format="2">
  <advance width="620"/>
  <unicode hex="1E9E"/>
  <outline>
    <contour>
      <point x="300" y="630" type="curve" smooth="yes"/>
      <point x="212" y="630"/>
      <point x="153" y="584"/>
      <point x="153" y="460" type="curve" smooth="yes"/>
      <point x="153" y="0" type="line"/>
      <point x="58" y="0" type="line"/>
      <point x="58" y="480" type="line" smooth="yes"/>
      <point x="58" y="676"/>
      <point x="194" y="726"/>
      <point x="299" y="726" type="curve" smooth="yes"/>
      <point x="464" y="726"/>
      <point x="547" y="612"/>
      <point x="544" y="502" type="curve"/>
      <point x="403" y="375" type="line"/>
      <point x="475" y="355"/>
      <point x="536" y="311"/>
      <point x="560" y="255" type="curve" smooth="yes"/>
      <point x="590" y="185"/>
      <point x="577" y="93"/>
      <point x="509" y="39" type="curve" smooth="yes"/>
      <point x="449" y="-8"/>
      <point x="349" y="-18"/>
      <point x="240" y="12" type="curve"/>
      <point x="240" y="108" type="line"/>
      <point x="320" y="83"/>
      <point x="390" y="80"/>
      <point x="432" y="105" type="curve" smooth="yes"/>
      <point x="479" y="133"/>
      <point x="485" y="194"/>
      <point x="462" y="234" type="curve" smooth="yes"/>
      <point x="437" y="277"/>
      <point x="380" y="303"/>
      <point x="295" y="315" type="curve"/>
      <point x="295" y="396" type="line"/>
      <point x="435" y="531" type="line"/>
      <point x="425" y="587"/>
      <point x="372" y="630"/>
    </contour>
  </outline>
</glyph>
<glyph name="quoteright" format="2">
  <advance width="620"/>
  <unicode hex="2019"/>
  <outline>
    <contour>
      <point x="272" y="624" type="line"/>
      <point x="230" y="456" type="line"/>
      <point x="286" y="456" type="line"/>
      <point x="367" y="624" type="line"/>
    </contour>
    <contour>
      <point x="309" y="588" type="curve" smooth="yes"/>
      <point x="345" y="588"/>
      <point x="375" y="619"/>
      <point x="375" y="658" type="curve" smooth="yes"/>
      <point x="375" y="694"/>
      <point x="345" y="726"/>
      <point x="309" y="726" type="curve" smooth="yes"/>
      <point x="269" y="726"/>
      <point x="238" y="694"/>
      <point x="238" y="658" type="curve" smooth="yes"/>
      <point x="238" y="619"/>
      <point x="269" y="588"/>
    </contour>
  </outline>
</glyph>
<glyph name="quotesinglbase" format="2">
  <advance width="620"/>
  <unicode hex="201A"/>
  <outline>
    <contour>
      <point x="272" y="36" type="line"/>
      <point x="230" y="-132" type="line"/>
      <point x="286" y="-132" type="line"/>
      <point x="367" y="36" type="line"/>
    </contour>
    <contour>
      <point x="309" y="0" type="curve" smooth="yes"/>
      <point x="345" y="0"/>
      <point x="375" y="31"/>
      <point x="375" y="70" type="curve" smooth="yes"/>
      <point x="375" y="106"/>
      <point x="345" y="138"/>
      <point x="309" y="138" type="curve" smooth="yes"/>
      <point x="269" y="138"/>
      <point x="238" y="106"/>
      <point x="238" y="70" type="curve" smooth="yes"/>
      <point x="238" y="31"/>
      <point x="269" y="0"/>
    </contour>
  </outline>
</glyph>
<glyph name="minus" format="2">
  <advance width="620"/>
  <unicode hex="2212"/>
  <outline>
    <contour>
      <point x="550" y="347" type="line"/>
      <point x="70" y="347" type="line"/>
      <point x="70" y="258" type="line"/>
      <point x="550" y="258" type="line"/>
    </contour>
  </outline>
</glyph>
<glyph name="boxHeavyUpAndRight" format="2">
  <advance width="620"/>
  <unicode hex="2517"/>
  <outline>
    <contour>
      <point x="630" y="433" type="line"/>
      <point x="225" y="433" type="line"/>
      <point x="225" y="263" type="line"/>
      <point x="630" y="263" type="line"/>
    </contour>
    <contour>
      <point x="395" y="314" type="line"/>
      <point x="395" y="1130" type="line"/>
      <point x="225" y="1130" type="line"/>
      <point x="225" y="314" type="line"/>
    </contour>
  </outline>
</glyph>
<glyph name="boxRightLightAndLeftVerticalHeavy" format="2">
  <advance width="620"/>
  <unicode hex="2549"/>
  <outline>
    <contour>
      <point x="630" y="382" type="line"/>
      <point x="-10" y="382" type="line"/>
      <point x="-10" y="314" type="line"/>
      <point x="630" y="314" type="line"/>
    </contour>
    <contour>
      <point x="344" y="433" type="line"/>
      <point x="-10" y="433" type="line"/>
      <point x="-10" y="263" type="line"/>
      <point x="344" y="263" type="line"/>
    </contour>
    <contour>
      <point x="395" y="-430" type="line"/>
      <point x="395" y="1130" type="line"/>
      <point x="225" y="1130" type="line"/>
      <point x="225" y="-430" type="line"/>
    </contour>
  </outline>
</glyph>
<glyph name="boxLightDoubleDashHorizontal" format="2">
  <advance width="620"/>
  <unicode hex="254C"/>
  <outline>
    <contour>
      <point x="630" y="382" type="line"/>
      <point x="390" y="382" type="line"/>
      <point x="390" y="314" type="line"/>
      <point x="630" y="314" type="line"/>
    </contour>
    <contour>
      <point x="230" y="382" type="line"/>
      <point x="-10" y="382" type="line"/>
      <point x="-10" y="314" type="line"/>
      <point x="230" y="314" type="line"/>
    </contour>
  </outline>
</glyph>
<glyph name="boxHeavyDoubleDashHorizontal" format="2">
  <advance width="620"/>
  <unicode hex="254D"/>
  <outline>
    <contour>
      <point x="630" y="433" type="line"/>
      <point x="390" y="433" type="line"/>
      <point x="390" y="263" type="line"/>
      <point x="630" y="263" type="line"/>
    </contour>
    <contour>
      <point x="230" y="433" type="line"/>
      <point x="-10" y="433" type="line"/>
      <point x="-10" y="263" type="line"/>
      <point x="230" y="263" type="line"/>
    </contour>
  </outline>
</glyph>
<glyph name="boxDownSingleAndRightDouble" format="2">
  <advance width="620"/>
  <unicode hex="2552"/>
  <outline>
    <contour>
      <point x="630" y="450" type="line"/>
      <point x="276" y="450" type="line"/>
      <point x="276" y="382" type="line"/>
      <point x="630" y="382" type="line"/>
    </contour>
    <contour>
      <point x="630" y="314" type="line"/>
      <point x="276" y="314" type="line"/>
      <point x="276" y="246" type="line"/>
      <point x="630" y="246" type="line"/>
    </contour>
    <contour>
      <point x="344" y="-430" type="line"/>
      <point x="344" y="450" type="line"/>
      <point x="276" y="450" type="line"/>
      <point x="276" y="-430" type="line"/>
    </contour>
  </outline>
</glyph>
<glyph name="boxDoubleUpAndHorizontal" format="2">
  <advance width="620"/>
  <unicode hex="2569"/>
  <outline>
    <contour>
      <point x="630" y="246" type="line"/>
      <point x="630" y="314" type="line"/>
      <point x="-10" y="314" type="line"/>
      <point x="-10" y="246" type="line"/>
    </contour>
    <contour>
      <point x="276" y="382" type="line"/>
      <point x="276" y="450" type="line"/>
      <point x="-10" y="450" type="line"/>
      <point x="-10" y="382" type="line"/>
    </contour>
    <contour>
      <point x="276" y="1130" type="line"/>
      <point x="208" y="1130" type="line"/>
      <point x="208" y="382" type="line"/>
      <point x="276" y="382" type="line"/>
    </contour>
    <contour>
      <point x="412" y="1130" type="line"/>
      <point x="344" y="1130" type="line"/>
      <point x="344" y="382" type="line"/>
      <point x="412" y="382" type="line"/>
    </contour>
    <contour>
      <point x="630" y="382" type="line"/>
      <point x="630" y="450" type="line"/>
      <point x="344" y="450" type="line"/>
      <point x="344" y="382" type="line"/>
    </contour>
  </outline>
</glyph>
<glyph name="boxLightUp" format="2">
  <advance width="620"/>
  <unicode hex="2575"/>
  <outline>
    <contour>
      <point x="344" y="382" type="line"/>
      <point x="344" y="1130" type="line"/>
      <point x="276" y="1130" type="line"/>
      <point x="276" y="382" type="line"/>
    </contour>
  </outline>
</glyph>
<glyph name="boxHeavyLeftAndLightRight" format="2">
  <advance width="620"/>
  <unicode hex="257E"/>
  <outline>
    <contour>
      <point x="344" y="433" type="line"/>
      <point x="-10" y="433" type="line"/>
      <point x="-10" y="263" type="line"/>
      <point x="344" y="263" type="line"/>
    </contour>
    <contour>
      <point x="630" y="382" type="line"/>
      <point x="208" y="382" type="line"/>
      <point x="208" y="314" type="line"/>
      <point x="630" y="314" type="line"/>
    </contour>
  </outline>
</glyph>
<glyph name="asterisk_asterisk" format="2">
  <advance width="620"/>
  <outline>
    <contour>
      <point x="-321" y="534" type="line"/>
      <point x="-299" y="292" type="line"/>
      <point x="-243" y="292" type="line"/>
      <point x="-221" y="534" type="line"/>
    </contour>
    <contour>
      <point x="-57" y="411" type="line"/>
      <point x="-279" y="317" type="line"/>
      <point x="-261" y="263" type="line"/>
      <point x="-27" y="317" type="line"/>
    </contour>
    <contour>
      <point x="-485" y="411" type="line"/>
      <point x="-515" y="317" type="line"/>
      <point x="-281" y="263" type="line"/>
      <point x="-263" y="317" type="line"/>
    </contour>
    <contour>
      <point x="-455" y="117" type="line"/>
      <point x="-373" y="58" type="line"/>
      <point x="-247" y="275" type="line"/>
      <point x="-293" y="309" type="line"/>
    </contour>
    <contour>
      <point x="-86" y="117" type="line"/>
      <point x="-248" y="309" type="line"/>
      <point x="-294" y="275" type="line"/>
      <point x="-168" y="58" type="line"/>
    </contour>
    <contour>
      <point x="221" y="534" type="line"/>
      <point x="243" y="292" type="line"/>
      <point x="299" y="292" type="line"/>
      <point x="321" y="534" type="line"/>
    </contour>
    <contour>
      <point x="485" y="411" type="line"/>
      <point x="263" y="317" type="line"/>
      <point x="281" y="263" type="line"/>
      <point x="515" y="317" type="line"/>
    </contour>
    <contour>
      <point x="57" y="411" type="line"/>
      <point x="27" y="317" type="line"/>
      <point x="261" y="263" type="line"/>
      <point x="279" y="317" type="line"/>
    </contour>
    <contour>
      <point x="87" y="117" type="line"/>
      <point x="169" y="58" type="line"/>
      <point x="295" y="275" type="line"/>
      <point x="249" y="309" type="line"/>
    </contour>
    <contour>
      <point x="456" y="117" type="line"/>
      <point x="294" y="309" type="line"/>
      <point x="248" y="275" type="line"/>
      <point x="374" y="58" type="line"/>
    </contour>
  </outline>
</glyph>
<glyph name="brevecomb_acutecomb" format="2">
  <anchor x="310" y="550" name="_top"/>
  <outline>
    <contour>
      <point x="328" y="906" type="line"/>
      <point x="273" y="788" type="line"/>
      <point x="343" y="788" type="line"/>
      <point x="425" y="900" type="line"/>
      <point x="425" y="906" type="line"/>
    </contour>
    <component base="brevecomb"/>
  </outline>
</glyph>
<glyph name="brevecomb_hookabovecomb" format="2">
  <anchor x="310" y="550" name="_top"/>
  <outline>
    <contour>
      <point x="217" y="964" type="curve"/>
      <point x="217" y="905" type="line"/>
      <point x="264" y="906"/>
      <point x="334" y="905"/>
      <point x="353" y="892" type="curve" smooth="yes"/>
      <point x="361" y="887"/>
      <point x="360" y="879"/>
      <point x="354" y="875" type="curve" smooth="yes"/>
      <point x="336" y="860"/>
      <point x="320" y="855"/>
      <point x="291" y="834" type="curve" smooth="yes"/>
      <point x="283" y="828"/>
      <point x="276" y="820"/>
      <point x="276" y="807" type="curve" smooth="yes"/>
      <point x="276" y="792"/>
      <point x="276" y="803"/>
      <point x="276" y="790" type="curve"/>
      <point x="340" y="790" type="line"/>
      <point x="342" y="801" type="line" smooth="yes"/>
      <point x="343" y="808"/>
      <point x="346" y="813"/>
      <point x="354" y="819" type="curve" smooth="yes"/>
      <point x="368" y="830"/>
      <point x="384" y="836"/>
      <point x="406" y="852" type="curve" smooth="yes"/>
      <point x="430" y="872"/>
      <point x="430" y="897"/>
      <point x="414" y="918" type="curve" smooth="yes"/>
      <point x="392" y="947"/>
      <point x="325" y="965"/>
    </contour>
    <component base="brevecomb"/>
  </outline>
</glyph>
<glyph name="caroncomb.alt" format="2">
  <anchor x="387" y="750" name="_topright"/>
  <outline>
    <contour>
      <point x="512" y="850" type="line"/>
      <point x="495" y="635" type="line"/>
      <point x="559" y="635" type="line"/>
      <point x="620" y="844" type="line"/>
      <point x="620" y="850" type="line"/>
    </contour>
  </outline>
</glyph>
<glyph name="circumflexcomb_gravecomb" format="2">
  <anchor x="310" y="550" name="_top"/>
  <anchor x="310" y="786" name="top"/>
  <outline>
    <contour>
      <point x="453" y="868" type="line"/>
      <point x="356" y="868" type="line"/>
      <point x="356" y="862" type="line"/>
      <point x="438" y="750" type="line"/>
      <point x="508" y="750" type="line"/>
    </contour>
    <component base="circumflexcomb"/>
  </outline>
</glyph>
<glyph name="circumflexcomb_hookabovecomb" format="2">
  <anchor x="310" y="550" name="_top"/>
  <anchor x="310" y="786" name="top"/>
  <outline>
    <contour>
      <point x="361" y="924" type="curve"/>
      <point x="361" y="865" type="line"/>
      <point x="408" y="866"/>
      <point x="478" y="865"/>
      <point x="497" y="852" type="curve" smooth="yes"/>
      <point x="505" y="847"/>
      <point x="504" y="839"/>
      <point x="498" y="835" type="curve" smooth="yes"/>
      <point x="480" y="820"/>
      <point x="464" y="815"/>
      <point x="435" y="794" type="curve" smooth="yes"/>
      <point x="427" y="788"/>
      <point x="420" y="780"/>
      <point x="420" y="767" type="curve" smooth="yes"/>
      <point x="420" y="752"/>
      <point x="420" y="763"/>
      <point x="420" y="750" type="curve"/>
      <point x="484" y="750" type="line"/>
      <point x="486" y="761" type="line" smooth="yes"/>
      <point x="487" y="768"/>
      <point x="490" y="773"/>
      <point x="498" y="779" type="curve" smooth="yes"/>
      <point x="512" y="790"/>
      <point x="528" y="796"/>
      <point x="550" y="812" type="curve" smooth="yes"/>
      <point x="574" y="832"/>
      <point x="574" y="857"/>
      <point x="558" y="878" type="curve" smooth="yes"/>
      <point x="536" y="907"/>
      <point x="469" y="925"/>
    </contour>
    <component base="circumflexcomb"/>
  </outline>
</glyph>
<glyph name="colon_greater_colon" format="2">
  <advance width="620"/>
  <outline>
    <contour>
      <point x="-532" y="587" type="line"/>
      <point x="-532" y="488" type="line"/>
      <point x="-62" y="263" type="line"/>
      <point x="-62" y="356" type="line"/>
      <point x="-522" y="587" type="line"/>
    </contour>
    <contour>
      <point x="-532" y="21" type="line"/>
      <point x="-522" y="21" type="line"/>
      <point x="-62" y="257" type="line"/>
      <point x="-62" y="350" type="line"/>
      <point x="-532" y="120" type="line"/>
    </contour>
    <contour>
      <point x="221" y="30" type="curve" smooth="yes"/>
      <point x="262" y="30"/>
      <point x="296" y="64"/>
      <point x="296" y="105" type="curve" smooth="yes"/>
      <point x="296" y="146"/>
      <point x="262" y="180"/>
      <point x="221" y="180" type="curve" smooth="yes"/>
      <point x="180" y="180"/>
      <point x="146" y="146"/>
      <point x="146" y="105" type="curve" smooth="yes"/>
      <point x="146" y="64"/>
      <point x="180" y="30"/>
    </contour>
    <contour>
      <point x="221" y="427" type="curve" smooth="yes"/>
      <point x="262" y="427"/>
      <point x="296" y="461"/>
      <point x="296" y="502" type="curve" smooth="yes"/>
      <point x="296" y="543"/>
      <point x="262" y="577"/>
      <point x="221" y="577" type="curve" smooth="yes"/>
      <point x="180" y="577"/>
      <point x="146" y="543"/>
      <point x="146" y="502" type="curve" smooth="yes"/>
      <point x="146" y="461"/>
      <point x="180" y="427"/>
    </contour>
    <contour>
      <point x="-846" y="30" type="curve" smooth="yes"/>
      <point x="-805" y="30"/>
      <point x="-771" y="64"/>
      <point x="-771" y="105" type="curve" smooth="yes"/>
      <point x="-771" y="146"/>
      <point x="-805" y="180"/>
      <point x="-846" y="180" type="curve" smooth="yes"/>
      <point x="-887" y="180"/>
      <point x="-921" y="146"/>
      <point x="-921" y="105" type="curve" smooth="yes"/>
      <point x="-921" y="64"/>
      <point x="-887" y="30"/>
    </contour>
    <contour>
      <point x="-846" y="427" type="curve" smooth="yes"/>
      <point x="-805" y="427"/>
      <point x="-771" y="461"/>
      <point x="-771" y="502" type="curve" smooth="yes"/>
      <point x="-771" y="543"/>
      <point x="-805" y="577"/>
      <point x="-846" y="577" type="curve" smooth="yes"/>
      <point x="-887" y="577"/>
      <point x="-921" y="543"/>
      <point x="-921" y="502" type="curve" smooth="yes"/>
      <point x="-921" y="461"/>
      <point x="-887" y="427"/>
    </contour>
  </outline>
</glyph>
<glyph name="dieresiscomb_acutecomb" format="2">
  <anchor x="310" y="550" name="_top"/>
  <outline>
    <contour>
      <point x="328" y="906" type="line"/>
      <point x="273" y="788" type="line"/>
      <point x="343" y="788" type="line"/>
      <point x="425" y="900" type="line"/>
      <point x="425" y="906" type="line"/>
    </contour>
    <component base="dieresiscomb"/>
  </outline>
</glyph>
<glyph name="dieresiscomb_caroncomb" format="2">
  <anchor x="310" y="550" name="_top"/>
  <outline>
    <contour>
      <point x="235" y="932" type="line"/>
      <point x="150" y="932" type="line"/>
      <point x="265" y="788" type="line"/>
      <point x="352" y="788" type="line"/>
      <point x="352" y="794" type="line"/>
    </contour>
    <contour>
      <point x="470" y="932" type="line"/>
      <point x="385" y="932" type="line"/>
      <point x="268" y="794" type="line"/>
      <point x="268" y="788" type="line"/>
      <point x="355" y="788" type="line"/>
    </contour>
    <component base="dieresiscomb"/>
  </outline>
</glyph>
<glyph name="dollar_greater" format="2">
  <advance width="620"/>
  <outline>
    <contour>
      <point x="-301" y="764" type="line"/>
      <point x="-369" y="764" type="line"/>
      <point x="-369" y="-61" type="line"/>
      <point x="-301" y="-61" type="line"/>
    </contour>
    <contour>
      <point x="-348" y="316" type="curve"/>
      <point x="-348" y="396" type="line"/>
      <point x="-423" y="425"/>
      <point x="-487" y="446"/>
      <point x="-487" y="509" type="curve" smooth="yes"/>
      <point x="-487" y="570"/>
      <point x="-412" y="600"/>
      <point x="-326" y="598" type="curve" smooth="yes"/>
      <point x="-248" y="596"/>
      <point x="-187" y="553"/>
      <point x="-186" y="498" type="curve"/>
      <point x="-100" y="498" type="line"/>
      <point x="-100" y="624"/>
      <point x="-225" y="683"/>
      <point x="-326" y="684" type="curve" smooth="yes"/>
      <point x="-474" y="685"/>
      <point x="-582" y="623"/>
      <point x="-582" y="514" type="curve" smooth="yes"/>
      <point x="-582" y="399"/>
      <point x="-473" y="361"/>
    </contour>
    <contour>
      <point x="-327" y="394" type="curve"/>
      <point x="-327" y="312" type="line"/>
      <point x="-252" y="290"/>
      <point x="-185" y="260"/>
      <point x="-185" y="196" type="curve" smooth="yes"/>
      <point x="-185" y="138"/>
      <point x="-255" y="108"/>
      <point x="-345" y="108" type="curve" smooth="yes"/>
      <point x="-421" y="108"/>
      <point x="-500" y="149"/>
      <point x="-500" y="217" type="curve"/>
      <point x="-598" y="217" type="line"/>
      <point x="-598" y="86"/>
      <point x="-442" y="22"/>
      <point x="-347" y="22" type="curve" smooth="yes"/>
      <point x="-195" y="22"/>
      <point x="-90" y="86"/>
      <point x="-90" y="191" type="curve" smooth="yes"/>
      <point x="-90" y="312"/>
      <point x="-210" y="352"/>
    </contour>
    <contour>
      <point x="-14" y="597" type="line"/>
      <point x="-14" y="498" type="line"/>
      <point x="406" y="263" type="line"/>
      <point x="406" y="356" type="line"/>
      <point x="-4" y="597" type="line"/>
    </contour>
    <contour>
      <point x="-14" y="11" type="line"/>
      <point x="-4" y="11" type="line"/>
      <point x="406" y="257" type="line"/>
      <point x="406" y="350" type="line"/>
      <point x="-14" y="110" type="line"/>
    </contour>
  </outline>
</glyph>
<glyph name="equal_equal" format="2">
  <advance width="620"/>
  <outline>
    <contour>
      <point x="-34" y="250" type="line"/>
      <point x="-504" y="250" type="line"/>
      <point x="-504" y="164" type="line"/>
      <point x="-34" y="164" type="line"/>
    </contour>
    <contour>
      <point x="-34" y="452" type="line"/>
      <point x="-504" y="452" type="line"/>
      <point x="-504" y="366" type="line"/>
      <point x="-34" y="366" type="line"/>
    </contour>
    <contour>
      <point x="504" y="250" type="line"/>
      <point x="34" y="250" type="line"/>
      <point x="34" y="164" type="line"/>
      <point x="504" y="164" type="line"/>
    </contour>
    <contour>
      <point x="504" y="452" type="line"/>
      <point x="34" y="452" type="line"/>
      <point x="34" y="366" type="line"/>
      <point x="504" y="366" type="line"/>
    </contour>
  </outline>
</glyph>
<glyph name="equal_exclam_equal" format="2">
  <advance width="620"/>
  <outline>
    <contour>
      <point x="440" y="247" type="line"/>
      <point x="-50" y="247" type="line"/>
      <point x="-50" y="159" type="line"/>
      <point x="440" y="159" type="line"/>
    </contour>
    <contour>
      <point x="440" y="447" type="line"/>
      <point x="-50" y="447" type="line"/>
      <point x="-50" y="359" type="line"/>
      <point x="440" y="359" type="line"/>
    </contour>
    <contour>
      <point x="-570" y="247" type="line"/>
      <point x="-1060" y="247" type="line"/>
      <point x="-1060" y="159" type="line"/>
      <point x="-570" y="159" type="line"/>
    </contour>
    <contour>
      <point x="-570" y="447" type="line"/>
      <point x="-1060" y="447" type="line"/>
      <point x="-1060" y="359" type="line"/>
      <point x="-570" y="359" type="line"/>
    </contour>
    <contour>
      <point x="-310" y="-27" type="curve" smooth="yes"/>
      <point x="-269" y="-27"/>
      <point x="-234" y="8"/>
      <point x="-234" y="49" type="curve" smooth="yes"/>
      <point x="-234" y="90"/>
      <point x="-269" y="125"/>
      <point x="-310" y="125" type="curve" smooth="yes"/>
      <point x="-351" y="125"/>
      <point x="-386" y="90"/>
      <point x="-386" y="49" type="curve" smooth="yes"/>
      <point x="-386" y="8"/>
      <point x="-351" y="-27"/>
    </contour>
    <contour>
      <point x="-392" y="725" type="line"/>
      <point x="-385" y="560"/>
      <point x="-365" y="375"/>
      <point x="-357" y="210" type="curve"/>
      <point x="-263" y="210" type="line"/>
      <point x="-255" y="375"/>
      <point x="-235" y="560"/>
      <point x="-228" y="725" type="curve"/>
    </contour>
  </outline>
</glyph>
<glyph name="equal_greater_greater" format="2">
  <advance width="620"/>
  <outline>
    <contour>
      <point x="-340" y="258" type="line"/>
      <point x="-1050" y="258" type="line"/>
      <point x="-1050" y="186" type="line"/>
      <point x="-340" y="186" type="line"/>
    </contour>
    <contour>
      <point x="-340" y="428" type="line"/>
      <point x="-1050" y="428" type="line"/>
      <point x="-1050" y="356" type="line"/>
      <point x="-340" y="356" type="line"/>
    </contour>
    <contour>
      <point x="-368" y="620" type="line"/>
      <point x="-368" y="523" type="line"/>
      <point x="62" y="263" type="line"/>
      <point x="62" y="356" type="line"/>
      <point x="-358" y="620" type="line"/>
    </contour>
    <contour>
      <point x="-368" y="-7" type="line"/>
      <point x="-358" y="-7" type="line"/>
      <point x="62" y="257" type="line"/>
      <point x="62" y="350" type="line"/>
      <point x="-368" y="90" type="line"/>
    </contour>
    <contour>
      <point x="0" y="625" type="line"/>
      <point x="0" y="528" type="line"/>
      <point x="430" y="262" type="line"/>
      <point x="430" y="356" type="line"/>
      <point x="10" y="625" type="line"/>
    </contour>
    <contour>
      <point x="0" y="-12" type="line"/>
      <point x="10" y="-12" type="line"/>
      <point x="430" y="257" type="line"/>
      <point x="430" y="351" type="line"/>
      <point x="0" y="85" type="line"/>
    </contour>
  </outline>
</glyph>
<glyph name="i.right" format="2">
  <advance width="620"/>
  <anchor x="295" y="0" name="bottom"/>
  <anchor x="533" y="0" name="ogonek"/>
  <anchor x="310" y="766" name="top"/>
  <outline>
    <contour>
      <point x="186" y="509" type="line"/>
      <point x="186" y="421" type="line"/>
      <point x="372" y="421" type="line"/>
      <point x="372" y="509" type="line"/>
    </contour>
    <contour>
      <point x="372" y="509" type="line"/>
      <point x="274" y="509" type="line"/>
      <point x="274" y="0" type="line"/>
      <point x="372" y="0" type="line"/>
    </contour>
    <contour>
      <point x="142" y="88" type="line"/>
      <point x="142" y="0" type="line"/>
      <point x="533" y="0" type="line"/>
      <point x="533" y="88" type="line"/>
    </contour>
    <contour>
      <point x="310" y="606" type="curve" smooth="yes"/>
      <point x="355" y="606"/>
      <point x="390" y="641"/>
      <point x="390" y="686" type="curve" smooth="yes"/>
      <point x="390" y="730"/>
      <point x="355" y="766"/>
      <point x="310" y="766" type="curve" smooth="yes"/>
      <point x="267" y="766"/>
      <point x="230" y="730"/>
      <point x="230" y="686" type="curve" smooth="yes"/>
      <point x="230" y="641"/>
      <point x="267" y="606"/>
    </contour>
  </outline>
</glyph>
<glyph name="less_equal_greater" format="2">
  <advance width="620"/>
  <outline>
    <contour>
      <point x="55" y="258" type="line"/>
      <point x="-675" y="258" type="line"/>
      <point x="-675" y="186" type="line"/>
      <point x="55" y="186" type="line"/>
    </contour>
    <contour>
      <point x="55" y="428" type="line"/>
      <point x="-675" y="428" type="line"/>
      <point x="-675" y="356" type="line"/>
      <point x="55" y="356" type="line"/>
    </contour>
    <contour>
      <point x="0" y="620" type="line"/>
      <point x="0" y="523" type="line"/>
      <point x="450" y="263" type="line"/>
      <point x="450" y="356" type="line"/>
      <point x="10" y="620" type="line"/>
    </contour>
    <contour>
      <point x="0" y="-7" type="line"/>
      <point x="10" y="-7" type="line"/>
      <point x="450" y="257" type="line"/>
      <point x="450" y="350" type="line"/>
      <point x="0" y="90" type="line"/>
    </contour>
    <contour>
      <point x="-620" y="620" type="line"/>
      <point x="-630" y="620" type="line"/>
      <point x="-1070" y="356" type="line"/>
      <point x="-1070" y="263" type="line"/>
      <point x="-620" y="523" type="line"/>
    </contour>
    <contour>
      <point x="-620" y="-7" type="line"/>
      <point x="-620" y="90" type="line"/>
      <point x="-1070" y="350" type="line"/>
      <point x="-1070" y="257" type="line"/>
      <point x="-630" y="-7" type="line"/>
    </contour>
  </outline>
</glyph>
<glyph name="less_hyphen" format="2">
  <advance width="620"/>
  <outline>
    <contour>
      <point x="-162" y="349" type="line"/>
      <point x="-162" y="261" type="line"/>
      <point x="490" y="261" type="line"/>
      <point x="490" y="349" type="line"/>
    </contour>
    <contour>
      <point x="-36" y="632" type="line"/>
      <point x="-46" y="632" type="line"/>
      <point x="-490" y="358" type="line"/>
      <point x="-490" y="262" type="line"/>
      <point x="-36" y="532" type="line"/>
    </contour>
    <contour>
      <point x="-36" y="-24" type="line"/>
      <point x="-36" y="76" type="line"/>
      <point x="-490" y="351" type="line"/>
      <point x="-490" y="255" type="line"/>
      <point x="-46" y="-24" type="line"/>
    </contour>
  </outline>
</glyph>
<glyph name="m.both" format="2">
  <advance width="620"/>
  <outline>
    <contour>
      <point x="-11" y="554" type="line"/>
      <point x="-20" y="359"/>
      <point x="-17" y="164"/>
      <point x="-8" y="0" type="curve"/>
      <point x="91" y="0" type="line"/>
      <point x="84" y="144"/>
      <point x="77" y="288"/>
      <point x="83" y="424" type="curve"/>
      <point x="111" y="450"/>
      <point x="164" y="488"/>
      <point x="200" y="488" type="curve" smooth="yes"/>
      <point x="239" y="488"/>
      <point x="259" y="464"/>
      <point x="260" y="413" type="curve" smooth="yes"/>
      <point x="265" y="77" type="line"/>
      <point x="353" y="77" type="line"/>
      <point x="359" y="427" type="line"/>
      <point x="383" y="450"/>
      <point x="436" y="488"/>
      <point x="474" y="488" type="curve" smooth="yes"/>
      <point x="519" y="488"/>
      <point x="535" y="458"/>
      <point x="537" y="412" type="curve" smooth="yes"/>
      <point x="542" y="302"/>
      <point x="537" y="141"/>
      <point x="530" y="0" type="curve"/>
      <point x="629" y="0" type="line"/>
      <point x="636" y="152"/>
      <point x="641" y="308"/>
      <point x="631" y="443" type="curve" smooth="yes"/>
      <point x="625" y="523"/>
      <point x="584" y="566"/>
      <point x="505" y="566" type="curve" smooth="yes"/>
      <point x="448" y="566"/>
      <point x="385" y="530"/>
      <point x="345" y="500" type="curve"/>
      <point x="329" y="540"/>
      <point x="295" y="566"/>
      <point x="239" y="566" type="curve" smooth="yes"/>
      <point x="185" y="566"/>
      <point x="124" y="533"/>
      <point x="82" y="501" type="curve"/>
      <point x="74" y="554" type="line"/>
    </contour>
  </outline>
</glyph>
<glyph name="m.left" format="2">
  <advance width="620"/>
  <outline>
    <contour>
      <point x="-9" y="554" type="line"/>
      <point x="-19" y="359"/>
      <point x="-17" y="164"/>
      <point x="-7" y="0" type="curve"/>
      <point x="90" y="0" type="line"/>
      <point x="83" y="146"/>
      <point x="76" y="292"/>
      <point x="83" y="427" type="curve"/>
      <point x="105" y="451"/>
      <point x="150" y="486"/>
      <point x="185" y="486" type="curve" smooth="yes"/>
      <point x="221" y="486"/>
      <point x="234" y="463"/>
      <point x="234" y="418" type="curve" smooth="yes"/>
      <point x="237" y="147" type="line"/>
      <point x="324" y="147" type="line"/>
      <point x="327" y="445" type="line" smooth="yes"/>
      <point x="328" y="512"/>
      <point x="292" y="566"/>
      <point x="224" y="566" type="curve" smooth="yes"/>
      <point x="167" y="566"/>
      <point x="114" y="529"/>
      <point x="82" y="502" type="curve"/>
      <point x="74" y="554" type="line"/>
    </contour>
    <contour>
      <point x="295" y="481" type="curve"/>
      <point x="295" y="387" type="line"/>
      <point x="313" y="426"/>
      <point x="380" y="486"/>
      <point x="428" y="486" type="curve" smooth="yes"/>
      <point x="465" y="486"/>
      <point x="475" y="461"/>
      <point x="477" y="419" type="curve" smooth="yes"/>
      <point x="482" y="306"/>
      <point x="478" y="143"/>
      <point x="471" y="0" type="curve"/>
      <point x="568" y="0" type="line"/>
      <point x="577" y="152"/>
      <point x="578" y="298"/>
      <point x="571" y="444" type="curve" smooth="yes"/>
      <point x="567" y="523"/>
      <point x="529" y="566"/>
      <point x="463" y="566" type="curve" smooth="yes"/>
      <point x="390" y="566"/>
      <point x="325" y="513"/>
    </contour>
  </outline>
</glyph>
<glyph name="m.right" format="2">
  <advance width="620"/>
  <outline>
    <contour>
      <point x="51" y="554" type="line"/>
      <point x="41" y="359"/>
      <point x="43" y="164"/>
      <point x="53" y="0" type="curve"/>
      <point x="150" y="0" type="line"/>
      <point x="143" y="146"/>
      <point x="136" y="292"/>
      <point x="143" y="427" type="curve"/>
      <point x="165" y="451"/>
      <point x="210" y="486"/>
      <point x="245" y="486" type="curve" smooth="yes"/>
      <point x="281" y="486"/>
      <point x="294" y="463"/>
      <point x="294" y="418" type="curve" smooth="yes"/>
      <point x="297" y="147" type="line"/>
      <point x="384" y="147" type="line"/>
      <point x="387" y="445" type="line" smooth="yes"/>
      <point x="388" y="512"/>
      <point x="352" y="566"/>
      <point x="284" y="566" type="curve" smooth="yes"/>
      <point x="227" y="566"/>
      <point x="174" y="529"/>
      <point x="142" y="502" type="curve"/>
      <point x="134" y="554" type="line"/>
    </contour>
    <contour>
      <point x="355" y="481" type="curve"/>
      <point x="355" y="387" type="line"/>
      <point x="373" y="426"/>
      <point x="440" y="486"/>
      <point x="488" y="486" type="curve" smooth="yes"/>
      <point x="525" y="486"/>
      <point x="535" y="461"/>
      <point x="537" y="419" type="curve" smooth="yes"/>
      <point x="542" y="306"/>
      <point x="538" y="143"/>
      <point x="531" y="0" type="curve"/>
      <point x="628" y="0" type="line"/>
      <point x="637" y="152"/>
      <point x="638" y="298"/>
      <point x="631" y="444" type="curve" smooth="yes"/>
      <point x="627" y="523"/>
      <point x="589" y="566"/>
      <point x="523" y="566" type="curve" smooth="yes"/>
      <point x="450" y="566"/>
      <point x="385" y="513"/>
    </contour>
  </outline>
</glyph>
